<?xml version="1.0" encoding="UTF-8"?>
<!DOCTYPE svg PUBLIC "-//W3C//DTD SVG 1.1//EN" "http://www.w3.org/Graphics/SVG/1.1/DTD/svg11.dtd">
<!-- Creator: CorelDRAW -->
<svg xmlns="http://www.w3.org/2000/svg" xml:space="preserve" width="345px" height="350px" version="1.1" style="shape-rendering:geometricPrecision; text-rendering:geometricPrecision; image-rendering:optimizeQuality; fill-rule:evenodd; clip-rule:evenodd"
viewBox="0 0 96.91 98.45"
 xmlns:xlink="http://www.w3.org/1999/xlink"
 xmlns:xodm="http://www.corel.com/coreldraw/odm/2003">
 <defs>
  <style type="text/css">
   <![CDATA[
    .fil0 {fill:#212121}
   ]]>
  </style>
 </defs>
 <g id="Camada_x0020_1">
  <metadata id="CorelCorpID_0Corel-Layer"/>
  <g id="_2942803858608">
   <g>
    <path class="fil0" d="M50.99 30.71c-0.05,0.22 -0.8,1.22 -1.03,1.46 -0.28,0.29 -0.56,0.55 -0.89,0.78 -0.16,0.11 -0.34,0.21 -0.54,0.3 -0.3,0.13 -0.64,0.23 -0.99,0.26 -0.13,0.01 -0.29,-0.01 -0.41,0 0.06,0.01 1.94,0.58 2.04,0.63 -0.12,0.08 -0.38,0.21 -0.53,0.27 -0.1,0.03 -0.52,-0.11 -0.65,-0.14 -2.35,-0.63 -4.94,-0.73 -7.31,-0.16 -2.03,0.49 -3.93,1.44 -5.53,2.7l-1.11 0.94c-0.21,0.18 -0.45,0.41 -0.63,0.61l-0.4 0.42c-0.39,0.44 -0.77,0.88 -1.12,1.36 -0.14,0.19 -0.57,0.75 -0.66,0.98 1.16,1.57 2.3,3.98 0.86,5.83 -0.25,0.32 -0.34,0.33 -0.59,0.56l0.5 4.06c0.09,0.03 1.63,0.01 1.86,0.01l0.21 -2.65c0.59,-0.07 1.27,-0.53 1.67,-0.87 0.46,-0.39 0.86,-0.84 1.23,-1.32 0.14,-0.19 0.29,-0.4 0.42,-0.6 0.25,-0.4 0.55,-0.87 0.73,-1.3 0.19,0.04 0.5,0.15 0.73,0.2 0.81,0.19 1.64,0.26 2.48,0.28 0.88,0.02 1.75,-0.03 2.62,-0.14 0.27,-0.04 0.54,-0.09 0.81,-0.13 -0.04,0.09 -0.11,0.21 -0.17,0.3 -0.11,0.19 -0.05,0.15 -0.27,0.21 -0.37,0.12 -1.94,0.6 -2.21,0.66 0.14,0.06 1.13,0.06 1.36,0.06 1.06,-0.02 2.11,-0.19 3.13,-0.44 0.2,-0.05 0.38,-0.11 0.57,-0.16 -0.1,-0.71 -0.21,-1 -0.15,-1.78 0.03,-0.37 0.22,-1.37 0.38,-1.6 0.05,0.09 0.86,4.41 0.91,4.64l0.67 3.48c0.07,0.38 0.16,0.78 0.22,1.16l1.67 0c-0.07,-2.02 0.3,-4.29 0.86,-6.08 0.41,-1.3 0.91,-2.45 1.61,-3.58 0.31,-0.49 0.37,-0.67 0.61,-1.14 0.03,0.08 0.1,0.51 0.12,0.62 0.02,0.12 -0.03,0.19 -0.08,0.28 -0.04,0.09 -0.07,0.17 -0.11,0.26 -0.08,0.18 -0.16,0.34 -0.23,0.51 -0.07,0.16 -0.19,0.38 -0.24,0.53 0.37,-0.11 0.86,-0.68 1.07,-0.99 0.6,-0.91 0.86,-2.08 0.91,-3.21 0.02,-0.71 -0.04,-1.31 -0.1,-2 1,0.09 1.27,0.18 2.36,0.08 0.57,-0.05 1.56,-0.21 2.07,-0.43 0.26,-0.11 0.5,-0.36 0.6,-0.65 0.31,-0.88 0.63,-2.14 0.68,-3.07l-0.63 0.05c-0.05,-0.76 -0.79,-0.85 -0.99,-0.47 -0.1,0.19 -0.03,0.34 0.02,0.52l-0.67 0.03 -0.32 -1c0.32,-0.2 0.65,-0.36 1.08,-0.46 0.54,-0.12 0.87,-0.09 1.4,0 -0.09,-0.47 -0.46,-0.88 -0.83,-1.15 -0.11,-0.08 -0.27,-0.17 -0.41,-0.24 -1.63,-0.78 -4.01,-0.61 -5.79,-0.36 -0.38,0.06 -0.76,0.14 -1.13,0.18 -0.16,-0.13 -0.25,-0.44 -0.79,-0.81 -0.32,-0.21 -0.81,-0.38 -1.25,-0.21 -0.71,0.27 -0.59,1.07 -0.13,1.54 0.19,0.19 0.31,0.26 0.43,0.38zm1.37 0.82l0.99 0c0.1,0.32 0.5,0.54 0.94,0.54 0.43,0 0.83,-0.22 0.93,-0.54l1.02 0c-0.48,-0.31 -1.25,-0.57 -1.94,-0.62 -0.35,-0.02 -0.8,0.08 -1.1,0.18 -0.15,0.05 -0.31,0.12 -0.44,0.19 -0.08,0.04 -0.14,0.07 -0.21,0.11l-0.19 0.14z"/>
    <path class="fil0" d="M37.53 47.64l1.59 1.48c0.04,0.04 0.07,0.06 0.12,0.1 0.06,0.06 0.09,0.16 0.13,0.27l0.58 1.49c0.07,0.19 0.15,0.41 0.23,0.58l1.93 0 -1.29 -5.28 -2.14 -0.37c0,0.01 -0.01,0.01 -0.01,0.01 0,0 -1.09,1.6 -1.14,1.72z"/>
    <path class="fil0" d="M52.8 51.56l1.43 0c0.01,-0.33 -0.06,-0.77 -0.07,-1.12 -0.02,-0.4 -0.04,-0.79 -0.05,-1.18 -0.03,-2 0.19,-3.61 0.57,-5.54 0.04,-0.17 0.08,-0.34 0.11,-0.51 0.04,-0.15 0.1,-0.36 0.11,-0.51l-0.28 0.49c-0.42,0.64 -1.05,1.39 -1.83,1.62 -0.14,0.05 -0.1,0.01 -0.17,0.22 -0.13,0.39 -0.24,0.81 -0.33,1.23 -0.37,1.87 -0.11,3.67 0.51,5.3z"/>
    <path class="fil0" d="M53.25 29.16c0.18,-0.01 1.05,-0.15 1.35,-0.19 0.04,-0.01 0.07,-0.01 0.1,-0.02l0.09 -0.02c-0.55,-0.82 -1.56,-1.05 -1.74,-0.48 -0.08,0.27 0.07,0.55 0.2,0.71z"/>
   </g>
   <g>
    <path class="fil0" d="M77.15 14.03c0.05,0.23 0.8,1.23 1.03,1.47 0.28,0.28 0.56,0.55 0.89,0.78 0.16,0.11 0.34,0.21 0.54,0.3 0.31,0.13 0.65,0.23 0.99,0.25 0.13,0.01 0.29,0 0.41,0.01 -0.05,0.01 -1.94,0.58 -2.04,0.63 0.12,0.08 0.38,0.21 0.53,0.27 0.1,0.03 0.52,-0.11 0.65,-0.15 2.35,-0.62 4.94,-0.72 7.31,-0.15 2.04,0.49 3.93,1.44 5.53,2.7l1.12 0.94c0.2,0.18 0.44,0.41 0.62,0.61l0.4 0.42c0.39,0.43 0.77,0.88 1.12,1.36 0.14,0.19 0.57,0.75 0.66,0.98 -1.16,1.57 -2.3,3.98 -0.85,5.83 0.25,0.32 0.33,0.33 0.58,0.56l-0.49 4.06c-0.09,0.03 -1.64,0.01 -1.87,0.01l-0.2 -2.65c-0.59,-0.07 -1.27,-0.53 -1.68,-0.87 -0.46,-0.39 -0.86,-0.84 -1.23,-1.32 -0.14,-0.19 -0.29,-0.4 -0.42,-0.6 -0.25,-0.4 -0.55,-0.87 -0.73,-1.3 -0.19,0.04 -0.5,0.14 -0.73,0.2 -0.81,0.19 -1.64,0.26 -2.48,0.28 -0.88,0.02 -1.75,-0.03 -2.62,-0.14 -0.27,-0.04 -0.54,-0.09 -0.81,-0.13 0.04,0.09 0.12,0.21 0.17,0.3 0.11,0.19 0.05,0.14 0.27,0.21 0.38,0.12 1.94,0.6 2.22,0.66 -0.15,0.06 -1.14,0.06 -1.36,0.06 -1.07,-0.02 -2.11,-0.19 -3.14,-0.44 -0.2,-0.05 -0.38,-0.11 -0.57,-0.16 0.1,-0.71 0.21,-1 0.15,-1.78 -0.03,-0.37 -0.21,-1.37 -0.37,-1.61 -0.06,0.1 -0.87,4.42 -0.91,4.65l-0.68 3.48c-0.07,0.38 -0.16,0.78 -0.22,1.16l-1.67 0c0.07,-2.02 -0.3,-4.29 -0.86,-6.08 -0.41,-1.3 -0.91,-2.45 -1.61,-3.58 -0.3,-0.49 -0.36,-0.67 -0.61,-1.14 -0.03,0.08 -0.1,0.5 -0.12,0.62 -0.02,0.12 0.04,0.19 0.08,0.28 0.04,0.09 0.08,0.17 0.12,0.26 0.07,0.18 0.15,0.34 0.23,0.51 0.06,0.16 0.19,0.38 0.23,0.53 -0.36,-0.11 -0.86,-0.68 -1.07,-0.99 -0.6,-0.91 -0.86,-2.09 -0.9,-3.22 -0.03,-0.7 0.03,-1.3 0.09,-1.99 -1,0.09 -1.26,0.18 -2.35,0.08 -0.57,-0.05 -1.57,-0.21 -2.08,-0.43 -0.26,-0.11 -0.5,-0.36 -0.6,-0.65 -0.3,-0.88 -0.62,-2.14 -0.67,-3.07l0.62 0.05c0.05,-0.76 0.79,-0.85 0.99,-0.47 0.1,0.19 0.03,0.34 -0.02,0.52l0.67 0.03 0.32 -1c-0.32,-0.2 -0.65,-0.36 -1.08,-0.46 -0.53,-0.12 -0.87,-0.09 -1.4,0 0.09,-0.47 0.46,-0.88 0.83,-1.15 0.11,-0.08 0.27,-0.17 0.42,-0.24 1.63,-0.78 4,-0.61 5.78,-0.36 0.38,0.06 0.76,0.13 1.13,0.18 0.16,-0.13 0.25,-0.44 0.79,-0.81 0.32,-0.21 0.81,-0.38 1.25,-0.21 0.72,0.27 0.59,1.07 0.13,1.54 -0.18,0.19 -0.31,0.26 -0.43,0.37zm-1.36 0.83l-1 0c-0.1,0.32 -0.49,0.54 -0.93,0.54 -0.44,0 -0.84,-0.22 -0.94,-0.54l-1.01 0c0.47,-0.31 1.24,-0.57 1.93,-0.62 0.35,-0.02 0.8,0.08 1.1,0.18 0.15,0.05 0.31,0.12 0.45,0.19 0.07,0.04 0.14,0.07 0.2,0.11l0.2 0.14z"/>
    <path class="fil0" d="M90.61 30.97l-1.59 1.48c-0.04,0.04 -0.07,0.06 -0.11,0.1 -0.07,0.06 -0.09,0.16 -0.14,0.27l-0.58 1.49c-0.07,0.19 -0.15,0.41 -0.23,0.58l-1.93 0 1.3 -5.28 2.13 -0.37c0.01,0.01 0.01,0.01 0.01,0.01 0,0 1.09,1.6 1.14,1.72z"/>
    <path class="fil0" d="M75.34 34.89l-1.43 0c-0.01,-0.33 0.06,-0.77 0.08,-1.13 0.02,-0.39 0.04,-0.78 0.04,-1.17 0.03,-2 -0.19,-3.61 -0.57,-5.54 -0.04,-0.17 -0.07,-0.34 -0.11,-0.51 -0.03,-0.15 -0.1,-0.36 -0.11,-0.51l0.28 0.48c0.42,0.65 1.06,1.4 1.83,1.63 0.14,0.05 0.1,0.01 0.17,0.22 0.14,0.39 0.24,0.81 0.33,1.23 0.38,1.87 0.12,3.67 -0.51,5.3z"/>
    <path class="fil0" d="M74.89 12.48c-0.18,0 -1.04,-0.14 -1.35,-0.18 -0.03,-0.01 -0.07,-0.01 -0.1,-0.02l-0.09 -0.02c0.55,-0.82 1.56,-1.06 1.74,-0.48 0.08,0.27 -0.07,0.55 -0.2,0.7z"/>
   </g>
   <g>
    <path class="fil0" d="M8.55 2.2c0.04,0.19 0.68,1.04 0.87,1.25 0.24,0.24 0.48,0.46 0.76,0.66 0.14,0.09 0.3,0.19 0.46,0.26 0.26,0.11 0.55,0.2 0.85,0.22 0.11,0.01 0.25,-0.01 0.35,0 -0.05,0.01 -1.66,0.5 -1.74,0.54 0.1,0.07 0.32,0.18 0.45,0.23 0.08,0.03 0.45,-0.09 0.55,-0.12 2.01,-0.53 4.22,-0.62 6.25,-0.13 1.74,0.42 3.35,1.23 4.72,2.3l0.95 0.81c0.18,0.15 0.38,0.35 0.53,0.51l0.35 0.37c0.33,0.36 0.65,0.74 0.95,1.15 0.12,0.16 0.49,0.65 0.57,0.84 -1,1.34 -1.97,3.4 -0.73,4.98 0.21,0.27 0.28,0.28 0.5,0.47l-0.43 3.47c-0.07,0.03 -1.39,0.01 -1.59,0.01l-0.18 -2.26c-0.5,-0.06 -1.08,-0.45 -1.42,-0.74 -0.4,-0.34 -0.74,-0.72 -1.06,-1.13 -0.12,-0.16 -0.24,-0.34 -0.35,-0.52 -0.22,-0.33 -0.48,-0.74 -0.63,-1.1 -0.16,0.03 -0.43,0.12 -0.62,0.17 -0.69,0.16 -1.4,0.22 -2.12,0.24 -0.75,0.01 -1.49,-0.03 -2.23,-0.13 -0.24,-0.02 -0.47,-0.07 -0.69,-0.1 0.03,0.08 0.09,0.18 0.14,0.25 0.09,0.16 0.04,0.13 0.23,0.18 0.32,0.1 1.66,0.51 1.89,0.56 -0.12,0.06 -0.97,0.06 -1.16,0.05 -0.91,-0.01 -1.8,-0.15 -2.68,-0.37 -0.17,-0.04 -0.32,-0.1 -0.48,-0.14 0.08,-0.6 0.17,-0.85 0.12,-1.51 -0.02,-0.32 -0.18,-1.17 -0.32,-1.38 -0.04,0.09 -0.74,3.77 -0.77,3.97l-0.58 2.97c-0.06,0.33 -0.14,0.67 -0.19,0.99l-1.43 0c0.07,-1.72 -0.25,-3.66 -0.73,-5.19 -0.35,-1.11 -0.78,-2.09 -1.37,-3.05 -0.26,-0.42 -0.32,-0.58 -0.52,-0.98 -0.03,0.07 -0.09,0.43 -0.1,0.53 -0.02,0.1 0.02,0.16 0.06,0.24 0.03,0.07 0.07,0.15 0.1,0.22 0.07,0.15 0.13,0.29 0.2,0.44 0.05,0.13 0.16,0.32 0.2,0.45 -0.31,-0.1 -0.74,-0.58 -0.91,-0.85 -0.52,-0.77 -0.74,-1.78 -0.78,-2.74 -0.02,-0.61 0.03,-1.12 0.08,-1.71 -0.85,0.08 -1.08,0.16 -2.01,0.07 -0.49,-0.04 -1.34,-0.18 -1.77,-0.36 -0.23,-0.1 -0.43,-0.31 -0.51,-0.56 -0.26,-0.75 -0.54,-1.83 -0.58,-2.62l0.53 0.04c0.05,-0.65 0.68,-0.72 0.85,-0.4 0.09,0.16 0.03,0.29 -0.02,0.45l0.57 0.02 0.28 -0.86c-0.27,-0.16 -0.55,-0.3 -0.92,-0.39 -0.46,-0.1 -0.74,-0.07 -1.2,0 0.08,-0.39 0.39,-0.75 0.71,-0.98 0.09,-0.06 0.23,-0.15 0.35,-0.21 1.39,-0.66 3.42,-0.52 4.94,-0.3 0.33,0.05 0.65,0.11 0.97,0.15 0.13,-0.11 0.21,-0.38 0.67,-0.69 0.27,-0.18 0.7,-0.32 1.07,-0.18 0.61,0.23 0.5,0.92 0.11,1.31 -0.16,0.17 -0.26,0.23 -0.36,0.33zm-1.17 0.7l-0.85 0c-0.08,0.27 -0.42,0.47 -0.8,0.46 -0.37,0 -0.71,-0.19 -0.8,-0.46l-0.87 0c0.41,-0.27 1.07,-0.49 1.66,-0.53 0.3,-0.02 0.68,0.07 0.94,0.16 0.13,0.04 0.26,0.1 0.38,0.16 0.06,0.03 0.12,0.06 0.17,0.1l0.17 0.11z"/>
    <path class="fil0" d="M20.04 16.66l-1.36 1.26c-0.03,0.03 -0.06,0.05 -0.1,0.08 -0.06,0.05 -0.08,0.14 -0.11,0.23l-0.5 1.28c-0.06,0.16 -0.13,0.35 -0.2,0.5l-1.64 0 1.1 -4.52 1.83 -0.31c0,0.01 0,0.01 0,0.01 0,0 0.93,1.37 0.98,1.47z"/>
    <path class="fil0" d="M7 20.01l-1.23 0c0,-0.29 0.06,-0.66 0.07,-0.97 0.02,-0.33 0.03,-0.67 0.04,-1 0.03,-1.71 -0.16,-3.08 -0.49,-4.73 -0.03,-0.15 -0.06,-0.29 -0.09,-0.43 -0.03,-0.14 -0.08,-0.31 -0.09,-0.44l0.23 0.41c0.37,0.55 0.91,1.2 1.57,1.39 0.12,0.04 0.08,0.01 0.14,0.19 0.12,0.33 0.21,0.69 0.28,1.05 0.32,1.6 0.1,3.13 -0.43,4.53z"/>
    <path class="fil0" d="M6.61 0.87c-0.15,0 -0.89,-0.12 -1.15,-0.16 -0.03,0 -0.06,0 -0.09,-0.01l-0.07 -0.02c0.47,-0.7 1.33,-0.9 1.48,-0.41 0.07,0.23 -0.06,0.47 -0.17,0.6z"/>
   </g>
   <g>
    <path class="fil0" d="M14.36 67c0.04,0.19 0.68,1.05 0.88,1.25 0.24,0.24 0.47,0.47 0.75,0.66 0.14,0.1 0.3,0.19 0.47,0.26 0.26,0.12 0.55,0.2 0.84,0.22 0.11,0.01 0.25,-0.01 0.35,0.01 -0.04,0 -1.65,0.49 -1.74,0.53 0.1,0.07 0.32,0.18 0.45,0.23 0.09,0.03 0.45,-0.09 0.56,-0.12 2.01,-0.53 4.21,-0.62 6.24,-0.13 1.74,0.42 3.35,1.23 4.72,2.3l0.95 0.81c0.18,0.15 0.38,0.35 0.54,0.51l0.34 0.37c0.33,0.37 0.66,0.74 0.96,1.15 0.12,0.17 0.48,0.65 0.56,0.84 -0.99,1.34 -1.96,3.4 -0.73,4.98 0.21,0.27 0.28,0.29 0.5,0.48l-0.42 3.47c-0.08,0.03 -1.4,0.01 -1.6,0.01l-0.17 -2.27c-0.51,-0.05 -1.09,-0.45 -1.43,-0.74 -0.39,-0.34 -0.74,-0.72 -1.05,-1.13 -0.12,-0.16 -0.25,-0.34 -0.36,-0.51 -0.21,-0.34 -0.47,-0.74 -0.63,-1.11 -0.16,0.03 -0.42,0.12 -0.62,0.17 -0.69,0.16 -1.4,0.22 -2.12,0.24 -0.74,0.02 -1.49,-0.03 -2.23,-0.12 -0.23,-0.03 -0.47,-0.08 -0.69,-0.11 0.03,0.08 0.09,0.18 0.14,0.26 0.09,0.15 0.04,0.12 0.23,0.18 0.32,0.09 1.66,0.5 1.89,0.56 -0.12,0.05 -0.96,0.05 -1.16,0.04 -0.91,-0.01 -1.8,-0.15 -2.68,-0.37 -0.16,-0.04 -0.32,-0.09 -0.48,-0.13 0.08,-0.61 0.18,-0.86 0.12,-1.52 -0.02,-0.32 -0.18,-1.17 -0.31,-1.37 -0.05,0.08 -0.74,3.76 -0.78,3.96l-0.58 2.98c-0.06,0.32 -0.13,0.66 -0.19,0.99l-1.42 0c0.06,-1.73 -0.26,-3.67 -0.74,-5.2 -0.35,-1.11 -0.77,-2.09 -1.37,-3.05 -0.26,-0.42 -0.31,-0.57 -0.52,-0.97 -0.03,0.06 -0.08,0.42 -0.1,0.53 -0.02,0.09 0.03,0.15 0.06,0.23 0.04,0.07 0.07,0.15 0.1,0.22 0.07,0.15 0.14,0.29 0.2,0.44 0.06,0.13 0.16,0.32 0.2,0.45 -0.31,-0.1 -0.74,-0.58 -0.91,-0.84 -0.52,-0.78 -0.74,-1.78 -0.78,-2.75 -0.02,-0.61 0.04,-1.11 0.08,-1.7 -0.85,0.08 -1.07,0.15 -2.01,0.07 -0.48,-0.05 -1.33,-0.18 -1.77,-0.37 -0.22,-0.1 -0.42,-0.31 -0.51,-0.55 -0.26,-0.76 -0.53,-1.84 -0.58,-2.63l0.54 0.04c0.04,-0.65 0.67,-0.72 0.84,-0.4 0.09,0.17 0.03,0.29 -0.02,0.45l0.57 0.02 0.28 -0.85c-0.27,-0.17 -0.55,-0.31 -0.92,-0.39 -0.46,-0.11 -0.74,-0.08 -1.19,-0.01 0.07,-0.39 0.39,-0.75 0.7,-0.97 0.1,-0.07 0.23,-0.15 0.36,-0.21 1.39,-0.67 3.41,-0.52 4.93,-0.31 0.33,0.05 0.65,0.12 0.97,0.16 0.13,-0.12 0.21,-0.38 0.67,-0.69 0.28,-0.19 0.7,-0.33 1.07,-0.19 0.61,0.23 0.5,0.92 0.12,1.32 -0.17,0.16 -0.27,0.22 -0.37,0.32zm-1.17 0.7l-0.85 0c-0.08,0.28 -0.42,0.47 -0.8,0.47 -0.37,0 -0.71,-0.2 -0.79,-0.47l-0.87 0c0.4,-0.26 1.06,-0.49 1.65,-0.52 0.3,-0.02 0.68,0.06 0.94,0.15 0.13,0.04 0.26,0.1 0.38,0.16 0.06,0.03 0.12,0.06 0.18,0.1l0.16 0.11z"/>
    <path class="fil0" d="M25.85 81.46l-1.36 1.26c-0.03,0.04 -0.06,0.05 -0.1,0.09 -0.05,0.05 -0.07,0.14 -0.11,0.23l-0.5 1.27c-0.06,0.16 -0.13,0.35 -0.19,0.5l-1.65 0 1.1 -4.51 1.83 -0.32c0,0.01 0.01,0.01 0.01,0.01 0,0 0.92,1.37 0.97,1.47z"/>
    <path class="fil0" d="M12.81 84.81l-1.22 0c-0.01,-0.29 0.05,-0.66 0.06,-0.96 0.02,-0.34 0.04,-0.67 0.04,-1.01 0.03,-1.71 -0.16,-3.08 -0.49,-4.73 -0.03,-0.15 -0.06,-0.29 -0.09,-0.43 -0.03,-0.13 -0.08,-0.31 -0.09,-0.44l0.24 0.42c0.36,0.55 0.9,1.19 1.56,1.39 0.12,0.03 0.08,0 0.14,0.18 0.12,0.34 0.21,0.69 0.28,1.05 0.33,1.6 0.1,3.13 -0.43,4.53z"/>
    <path class="fil0" d="M12.43 65.68c-0.16,-0.01 -0.9,-0.13 -1.16,-0.16 -0.03,-0.01 -0.06,-0.01 -0.08,-0.02l-0.08 -0.02c0.47,-0.7 1.34,-0.9 1.49,-0.4 0.07,0.22 -0.07,0.47 -0.17,0.6z"/>
   </g>
   <g>
    <path class="fil0" d="M71.36 79.57c-0.04,0.19 -0.68,1.05 -0.87,1.25 -0.24,0.24 -0.48,0.47 -0.76,0.66 -0.14,0.1 -0.3,0.19 -0.46,0.26 -0.26,0.11 -0.55,0.2 -0.85,0.22 -0.11,0.01 -0.25,-0.01 -0.35,0.01 0.05,0 1.66,0.49 1.74,0.53 -0.1,0.07 -0.32,0.18 -0.45,0.23 -0.08,0.03 -0.45,-0.09 -0.55,-0.12 -2.01,-0.53 -4.22,-0.62 -6.25,-0.13 -1.74,0.42 -3.35,1.23 -4.72,2.3l-0.95 0.81c-0.18,0.15 -0.38,0.35 -0.54,0.51l-0.34 0.37c-0.33,0.36 -0.65,0.74 -0.95,1.15 -0.12,0.16 -0.49,0.65 -0.57,0.84 1,1.34 1.97,3.4 0.73,4.98 -0.21,0.27 -0.28,0.28 -0.5,0.48l0.43 3.47c0.07,0.02 1.39,0.01 1.59,0.01l0.18 -2.27c0.5,-0.06 1.08,-0.45 1.42,-0.74 0.4,-0.34 0.74,-0.72 1.05,-1.13 0.13,-0.16 0.25,-0.34 0.36,-0.52 0.22,-0.33 0.48,-0.73 0.63,-1.1 0.16,0.03 0.42,0.12 0.62,0.17 0.69,0.16 1.4,0.22 2.12,0.24 0.75,0.01 1.49,-0.03 2.23,-0.12 0.24,-0.03 0.47,-0.08 0.69,-0.11 -0.03,0.08 -0.09,0.18 -0.14,0.25 -0.09,0.16 -0.04,0.13 -0.23,0.18 -0.32,0.1 -1.66,0.51 -1.89,0.56 0.12,0.06 0.97,0.06 1.16,0.05 0.91,-0.01 1.8,-0.15 2.68,-0.37 0.17,-0.04 0.32,-0.1 0.48,-0.13 -0.08,-0.61 -0.17,-0.86 -0.12,-1.52 0.02,-0.32 0.18,-1.17 0.32,-1.38 0.04,0.09 0.74,3.77 0.77,3.97l0.58 2.97c0.06,0.33 0.14,0.67 0.19,1l1.43 0c-0.07,-1.73 0.25,-3.67 0.73,-5.2 0.35,-1.11 0.78,-2.09 1.37,-3.05 0.26,-0.42 0.32,-0.57 0.52,-0.98 0.03,0.07 0.09,0.43 0.1,0.53 0.02,0.1 -0.02,0.16 -0.06,0.24 -0.03,0.07 -0.07,0.15 -0.1,0.22 -0.07,0.15 -0.13,0.29 -0.2,0.44 -0.05,0.13 -0.16,0.32 -0.2,0.45 0.31,-0.1 0.74,-0.58 0.91,-0.84 0.52,-0.78 0.74,-1.79 0.78,-2.75 0.02,-0.61 -0.03,-1.12 -0.08,-1.71 0.85,0.08 1.08,0.16 2.01,0.07 0.49,-0.04 1.34,-0.17 1.77,-0.36 0.23,-0.1 0.43,-0.31 0.51,-0.56 0.26,-0.75 0.54,-1.83 0.58,-2.62l-0.53 0.04c-0.05,-0.65 -0.68,-0.72 -0.85,-0.4 -0.09,0.16 -0.03,0.29 0.02,0.45l-0.57 0.02 -0.28 -0.86c0.27,-0.16 0.55,-0.3 0.92,-0.39 0.46,-0.1 0.74,-0.07 1.2,0 -0.08,-0.39 -0.39,-0.75 -0.71,-0.97 -0.09,-0.07 -0.23,-0.16 -0.35,-0.22 -1.4,-0.66 -3.42,-0.52 -4.94,-0.3 -0.33,0.05 -0.65,0.11 -0.97,0.16 -0.13,-0.12 -0.21,-0.39 -0.67,-0.69 -0.27,-0.19 -0.7,-0.33 -1.07,-0.19 -0.61,0.23 -0.5,0.92 -0.11,1.31 0.16,0.17 0.26,0.23 0.36,0.33zm1.17 0.7l0.85 0c0.08,0.28 0.42,0.47 0.8,0.47 0.37,-0.01 0.71,-0.2 0.8,-0.47l0.87 0c-0.41,-0.27 -1.07,-0.49 -1.66,-0.53 -0.3,-0.02 -0.68,0.07 -0.94,0.16 -0.13,0.04 -0.26,0.1 -0.38,0.16 -0.06,0.03 -0.12,0.06 -0.17,0.1l-0.17 0.11z"/>
    <path class="fil0" d="M59.87 94.03l1.36 1.26c0.03,0.03 0.06,0.05 0.1,0.08 0.06,0.06 0.08,0.14 0.11,0.24l0.5 1.27c0.06,0.16 0.13,0.35 0.2,0.5l1.64 0 -1.1 -4.51 -1.83 -0.32c0,0.01 0,0.01 0,0.01 0,0 -0.93,1.37 -0.98,1.47z"/>
    <path class="fil0" d="M72.91 97.38l1.23 0c0,-0.29 -0.06,-0.66 -0.07,-0.96 -0.02,-0.34 -0.03,-0.68 -0.04,-1.01 -0.03,-1.71 0.16,-3.08 0.49,-4.73 0.03,-0.15 0.06,-0.29 0.09,-0.43 0.03,-0.13 0.08,-0.31 0.09,-0.44l-0.23 0.41c-0.37,0.55 -0.91,1.2 -1.57,1.4 -0.12,0.03 -0.08,0 -0.14,0.18 -0.12,0.33 -0.21,0.69 -0.28,1.05 -0.32,1.6 -0.1,3.13 0.43,4.53z"/>
    <path class="fil0" d="M73.3 78.24c0.15,0 0.89,-0.12 1.15,-0.16 0.03,0 0.06,0 0.09,-0.01l0.07 -0.02c-0.47,-0.7 -1.33,-0.9 -1.48,-0.41 -0.07,0.23 0.06,0.47 0.17,0.6z"/>
   </g>
   <path class="fil0" d="M10.01 43.63l1.95 0 1.69 0.01c-0.18,-1.41 0.52,-2.45 1.28,-3.3 0.53,-0.6 1.07,-0.87 1.54,-1.26 -0.77,0.04 -1.98,0.47 -2.6,0.9l-0.7 0.51c-0.04,-0.13 -0.14,-0.29 -0.2,-0.49 -0.05,-0.2 -0.08,-0.4 -0.08,-0.61 -0.02,-0.78 0.24,-1.62 0.54,-2.31 0.08,-0.19 0.43,-0.85 0.45,-0.95l-0.5 0.36c-0.43,0.34 -0.92,1.01 -1.23,1.46 -0.21,0.31 -0.47,0.79 -0.63,1.16 -0.1,0.24 -0.47,1.09 -0.47,1.32 -0.05,-0.05 -0.05,-0.05 -0.07,-0.18 -0.28,-1.62 -0.39,-3.29 -0.2,-4.93 0.06,-0.58 0.18,-1.07 0.27,-1.62 -0.36,0.12 -0.82,0.69 -1.04,0.99 -0.27,0.36 -0.52,0.81 -0.72,1.29 -0.38,0.87 -0.68,2.01 -0.8,2.98 0,0.01 -0.02,0.12 -0.02,0.12 -0.03,0.09 0,0.06 -0.06,0.1 -0.01,-0.07 -0.27,-0.26 -0.36,-0.33 -0.36,-0.31 -0.93,-0.62 -1.38,-0.8 -0.5,-0.19 -1.89,-0.53 -2.47,-0.44 0.5,0.05 1.64,0.74 2.05,1.14 0.09,0.1 0.14,0.16 0.23,0.25 0.55,0.49 1.16,1.66 1.31,2.39l-0.34 -0.43c-0.13,-0.16 -0.23,-0.28 -0.4,-0.41 -0.3,-0.25 -0.54,-0.44 -0.93,-0.67 -0.55,-0.32 -1.68,-0.74 -2.44,-0.74 0.42,0.27 0.54,0.24 1.12,0.7 1.16,0.91 1.78,2.15 1.71,3.8l1.56 -0.01 1.94 0z"/>
   <path class="fil0" d="M67.33 68.3l1.95 0 1.68 0c-0.17,-1.41 0.53,-2.44 1.28,-3.3 0.53,-0.59 1.07,-0.87 1.54,-1.25 -0.77,0.03 -1.97,0.46 -2.6,0.89l-0.69 0.51c-0.04,-0.12 -0.15,-0.28 -0.21,-0.49 -0.05,-0.19 -0.08,-0.4 -0.08,-0.61 -0.02,-0.78 0.24,-1.61 0.54,-2.31 0.09,-0.18 0.44,-0.85 0.45,-0.95l-0.5 0.37c-0.43,0.33 -0.92,1 -1.23,1.46 -0.2,0.3 -0.47,0.79 -0.62,1.16 -0.1,0.24 -0.48,1.09 -0.47,1.31 -0.05,-0.05 -0.05,-0.04 -0.07,-0.17 -0.29,-1.62 -0.4,-3.29 -0.21,-4.93 0.07,-0.58 0.19,-1.07 0.28,-1.62 -0.37,0.11 -0.83,0.68 -1.05,0.98 -0.27,0.37 -0.51,0.82 -0.72,1.3 -0.37,0.86 -0.68,2 -0.8,2.97 0,0.01 -0.01,0.12 -0.01,0.13 -0.03,0.08 -0.01,0.06 -0.07,0.1 0,-0.07 -0.26,-0.26 -0.35,-0.34 -0.36,-0.31 -0.93,-0.61 -1.39,-0.79 -0.5,-0.2 -1.89,-0.54 -2.47,-0.44 0.51,0.05 1.64,0.74 2.05,1.14 0.09,0.09 0.14,0.16 0.23,0.24 0.55,0.49 1.17,1.67 1.32,2.4l-0.35 -0.43c-0.13,-0.17 -0.23,-0.28 -0.39,-0.42 -0.3,-0.25 -0.55,-0.44 -0.93,-0.66 -0.55,-0.32 -1.68,-0.75 -2.44,-0.75 0.41,0.28 0.53,0.24 1.11,0.7 1.16,0.92 1.79,2.15 1.71,3.8l1.57 0 1.94 0z"/>
   <path class="fil0" d="M30.31 98.44l1.94 0 1.69 0.01c-0.18,-1.41 0.52,-2.45 1.28,-3.3 0.53,-0.6 1.07,-0.87 1.54,-1.26 -0.77,0.04 -1.97,0.47 -2.6,0.9l-0.7 0.51c-0.03,-0.13 -0.14,-0.29 -0.2,-0.49 -0.05,-0.2 -0.08,-0.4 -0.08,-0.61 -0.02,-0.78 0.24,-1.62 0.54,-2.31 0.08,-0.19 0.43,-0.85 0.45,-0.95l-0.5 0.36c-0.43,0.34 -0.92,1.01 -1.23,1.46 -0.2,0.31 -0.47,0.79 -0.62,1.17 -0.1,0.23 -0.48,1.09 -0.48,1.31 -0.04,-0.05 -0.04,-0.05 -0.07,-0.18 -0.28,-1.62 -0.39,-3.29 -0.2,-4.93 0.07,-0.58 0.19,-1.07 0.28,-1.62 -0.37,0.12 -0.83,0.69 -1.05,0.99 -0.27,0.36 -0.52,0.81 -0.72,1.29 -0.37,0.87 -0.68,2.01 -0.8,2.98 0,0.01 -0.02,0.12 -0.02,0.12 -0.02,0.09 0,0.06 -0.06,0.1 -0.01,-0.06 -0.26,-0.26 -0.35,-0.33 -0.37,-0.31 -0.94,-0.62 -1.39,-0.8 -0.5,-0.19 -1.89,-0.53 -2.47,-0.44 0.5,0.06 1.64,0.74 2.05,1.14 0.09,0.1 0.14,0.16 0.23,0.25 0.55,0.49 1.17,1.66 1.31,2.39l-0.34 -0.43c-0.13,-0.16 -0.23,-0.28 -0.39,-0.41 -0.31,-0.25 -0.55,-0.44 -0.94,-0.67 -0.55,-0.32 -1.67,-0.74 -2.43,-0.74 0.41,0.27 0.53,0.24 1.11,0.7 1.16,0.92 1.79,2.15 1.71,3.8l1.57 -0.01 1.94 0z"/>
   <path class="fil0" d="M39.88 14.98l1.95 0 1.69 0c-0.18,-1.41 0.52,-2.44 1.28,-3.29 0.53,-0.6 1.07,-0.88 1.54,-1.26 -0.77,0.03 -1.98,0.46 -2.6,0.89l-0.7 0.51c-0.04,-0.12 -0.14,-0.28 -0.2,-0.49 -0.05,-0.19 -0.08,-0.4 -0.08,-0.61 -0.02,-0.77 0.24,-1.61 0.54,-2.3 0.08,-0.19 0.43,-0.85 0.45,-0.95l-0.5 0.36c-0.43,0.34 -0.92,1 -1.23,1.46 -0.21,0.3 -0.47,0.79 -0.63,1.16 -0.1,0.24 -0.47,1.09 -0.47,1.31 -0.05,-0.05 -0.05,-0.04 -0.07,-0.17 -0.28,-1.62 -0.39,-3.29 -0.2,-4.93 0.06,-0.58 0.18,-1.07 0.27,-1.62 -0.36,0.11 -0.82,0.69 -1.04,0.99 -0.27,0.36 -0.52,0.81 -0.72,1.29 -0.38,0.87 -0.68,2 -0.8,2.98 0,0.01 -0.02,0.11 -0.02,0.12 -0.03,0.08 0,0.06 -0.06,0.1 -0.01,-0.07 -0.27,-0.26 -0.36,-0.34 -0.36,-0.31 -0.93,-0.61 -1.38,-0.79 -0.5,-0.2 -1.89,-0.53 -2.47,-0.44 0.5,0.05 1.64,0.74 2.05,1.14 0.09,0.09 0.13,0.16 0.23,0.24 0.55,0.49 1.16,1.67 1.31,2.4l-0.34 -0.43c-0.13,-0.17 -0.23,-0.28 -0.4,-0.42 -0.3,-0.25 -0.54,-0.44 -0.93,-0.66 -0.55,-0.32 -1.68,-0.74 -2.44,-0.75 0.42,0.28 0.54,0.24 1.12,0.7 1.16,0.92 1.78,2.15 1.71,3.8l1.56 0 1.94 0z"/>
  </g>
 </g>
</svg>
